<svg id="Layer_1" data-name="Layer 1" xmlns="http://www.w3.org/2000/svg" viewBox="0 0 275.53 56.83"><defs><style>.cls-1{fill:#052c58;}.cls-2{fill:#153a63;}.cls-3{fill:#072e5a;}.cls-4{fill:#092f5a;}.cls-5{fill:#072e59;}.cls-6{fill:#062d59;}.cls-7{fill:#082f5a;}</style></defs><title>grandworld</title><path class="cls-1" d="M-366.27,2534.14c1.37-3.46,2.67-6.78,4-10.09,2.26-5.71,4.46-11.43,6.46-17.24.21-.61.39-1,1.19-1s.95.54,1.12,1.1c2.83,9,6.14,17.86,9.25,26.78.09.26.21.5.38.91,2.27-8.3,4.75-16.38,6.55-24.65.35-1.63.12-1.88-1.55-2q-1-.07-1.92-.06c-.64,0-.8-.31-.81-.9s.35-.78.91-.73a56,56,0,0,0,9,0c.51,0,1-.06.92.7,0,.54-.06.95-.75.92-1.67-.08-2.39.94-2.84,2.37-2.67,8.65-5.27,17.32-7.46,26.11-.45,1.78-1,3.54-1.4,5.32-.16.62-.25,1.2-1.1,1s-1.67.44-2.09-.89c-2.76-8.75-6-17.32-9.11-25.94-.13-.36-.15-.79-.6-1.09-1.4,3.53-2.81,7-4.17,10.54-2.1,5.47-4.24,10.93-6,16.51-.44,1.4-1.44.71-2.23.86s-.78-.58-.89-1.08c-2.16-10.27-4.59-20.48-6.9-30.71-.42-1.84-1.19-3-3.19-3-.72,0-.84-.36-.85-1s.42-.73.94-.69a74.69,74.69,0,0,0,10.89,0c.52,0,1-.12,1.06.72s-.39.9-1,.93c-3.37.17-3.34.18-2.75,3.43,1.35,7.47,3.21,14.82,4.76,22.24A4,4,0,0,0-366.27,2534.14Z" transform="translate(510.02 -2505.8)"/><path class="cls-2" d="M-443,2557.42h64.17a1.21,1.21,0,0,1,1.26,1.77c-.09.24-.25.27-.46.27s-.56,0-.84,0H-507a6.4,6.4,0,0,1-1.31-.07.92.92,0,0,1-.8-1,.92.92,0,0,1,.84-.88,9.65,9.65,0,0,1,1.32,0Z" transform="translate(510.02 -2505.8)"/><path class="cls-2" d="M-302.8,2559.46h-64.06c-1.57,0-1.54,0-1.41-1.5,0-.43.19-.55.57-.54h128.83a9.57,9.57,0,0,1,1.2,0,.91.91,0,0,1,.92.92,1,1,0,0,1-.92,1.05,7.85,7.85,0,0,1-1.19,0Z" transform="translate(510.02 -2505.8)"/><path class="cls-3" d="M-290.35,2530.09c2.62,3.5,5.18,6.91,7.75,10.31a1.85,1.85,0,0,0,1.46.71c.41,0,.69.1.68.61s-.32.51-.71.51c-1.16,0-2.32,0-3.48,0-.68,0-.91-.41-1.2-.81-1.91-2.61-3.79-5.24-5.72-7.84-.86-1.15-1.8-2.25-2.7-3.36-.2-.25-.47-.49-.28-.85s.49-.18.75-.17a8.82,8.82,0,0,0,2.85-.26,4.73,4.73,0,0,0,3.81-3.85c.6-3.34-1.25-5.52-4.75-5.67-3.65-.16-4,.17-4,3.75,0,5.36.07,10.71,0,16.07,0,1.3.53,1.83,1.77,1.8.32,0,.64,0,1,.06s.51.27.5.65-.17.57-.58.55a72.81,72.81,0,0,0-8.74,0c-.39,0-.58-.12-.58-.55s.1-.61.51-.63c.12,0,.24,0,.36,0,2.42-.25,2.45-.28,2.45-2.78,0-5.32,0-10.64,0-15.95,0-.28,0-.56,0-.84-.15-2-.18-2.07-2.26-2.24h-.48c-.49,0-.58-.27-.57-.7s.31-.46.64-.44c4.27.25,8.55-.2,12.82,0,3,.17,4.67,1.4,5.33,3.78a6.15,6.15,0,0,1-2.63,6.57A12.74,12.74,0,0,1-290.35,2530.09Z" transform="translate(510.02 -2505.8)"/><path class="cls-4" d="M-404,2530.08c0-2.92,0-5.84,0-8.75,0-1.67-.17-1.77-1.83-2-.41-.06-1,.14-1-.66s.66-.52,1.05-.52c4.31,0,8.62-.07,12.93,0,8.24.13,12.07,7.66,10.06,14.56-1.91,6.57-7.28,10.1-14.56,9.6-2.4-.16-4.79-.15-7.19-.1-.3,0-.76.33-.91-.23a.66.66,0,0,1,.51-.82c.93-.32.9-1.14.9-1.88,0-3.07,0-6.15,0-9.22Zm3.33,0c0,3.16,0,6.32,0,9.47,0,.66.2.89.86,1a24.49,24.49,0,0,0,4.19.17c4.12-.23,7.32-1.84,8.82-6a14.87,14.87,0,0,0,.7-7.21c-.6-4.26-3-6.88-6.82-7.63a22.68,22.68,0,0,0-6.93-.11c-.66.08-.83.32-.82,1C-400.65,2523.88-400.67,2527-400.67,2530.11Z" transform="translate(510.02 -2505.8)"/><path class="cls-5" d="M-472.2,2530.07c2.68,3.56,5.24,7,7.82,10.36a1.78,1.78,0,0,0,1.47.68c.49,0,.59.27.57.7s-.37.41-.68.41c-1.16,0-2.32,0-3.47,0a1,1,0,0,1-.91-.43c-2.94-3.93-5.62-8.06-8.87-11.76-.16-.19-.29-.4-.14-.65s.4-.21.64-.19a9.87,9.87,0,0,0,3-.23,5.09,5.09,0,0,0,3.67-6.78,4.19,4.19,0,0,0-3.24-2.56,10.59,10.59,0,0,0-4.16,0,1.16,1.16,0,0,0-1.15,1.34c0,2.6-.05,5.2-.06,7.79,0,3.28,0,6.56,0,9.84,0,2.19.11,2.29,2.24,2.48.2,0,.4,0,.6,0,.43.07.43.39.4.73s-.24.44-.57.42a80.14,80.14,0,0,0-8.63,0c-.38,0-.62,0-.65-.48s.06-.63.47-.69c.12,0,.24,0,.36,0,2.41-.29,2.44-.29,2.45-2.75q0-8.58,0-17.15c0-1.53-.2-1.72-1.69-1.84a5.93,5.93,0,0,0-.83-.07c-.51,0-.74-.15-.72-.68s.4-.47.75-.47c2.88,0,5.75,0,8.63,0a38.57,38.57,0,0,1,4.3,0c2.72.27,4.36,1.4,5,3.55a6.12,6.12,0,0,1-2,6.36A10.77,10.77,0,0,1-472.2,2530.07Z" transform="translate(510.02 -2505.8)"/><path class="cls-5" d="M-250.29,2518.16a33.35,33.35,0,0,1,6.92.18,10.12,10.12,0,0,1,8.65,8.56,13.14,13.14,0,0,1-9.4,15,27.71,27.71,0,0,1-7.39.4c-1.83,0-3.67,0-5.51,0-.26,0-.6.17-.71-.22a.6.6,0,0,1,.39-.78c.92-.28,1-1,1-1.79.29-6.11.14-12.22.12-18.34,0-1.15-.45-1.83-1.7-1.76-.16,0-.32,0-.48,0-.46,0-.73-.15-.71-.71s.43-.45.76-.45Zm-2.57,11.91c0,3.16,0,6.31,0,9.46,0,.73.24,1,.94,1a29.16,29.16,0,0,0,4.07.16c4.85-.22,7.87-2.47,9.13-6.84a15.27,15.27,0,0,0,.49-5.82q-.72-6.61-6.51-8a20.77,20.77,0,0,0-7.5-.18c-.68.08-.61.47-.61.9Q-252.85,2525.41-252.86,2530.07Z" transform="translate(510.02 -2505.8)"/><path class="cls-5" d="M-411.33,2542.77a5.64,5.64,0,0,1-4.52-2.45c-4.42-5.78-9-11.45-13.48-17.16-.21-.28-.44-.54-.68-.83-.31.35-.17.72-.17,1.05q0,7.5,0,15c0,.44.08.88.08,1.32a1.28,1.28,0,0,0,1.4,1.41c.32,0,.64.08,1,.09s.44.24.44.56-.11.5-.48.5c-2.16,0-4.32,0-6.48,0-.3,0-.55,0-.54-.44s0-.65.47-.64l.12,0c2.26-.45,2.28-.45,2.29-2.8q0-8.38,0-16.79c0-1.78-.26-2.07-2-2.19l-.47,0c-.41,0-.54-.26-.53-.65s.2-.52.6-.51c1.64,0,3.28,0,4.92,0,.58,0,.73.37,1,.71q6.76,9,13.8,17.81c.42.52.87,1,1.33,1.53.4-.27.28-.61.28-.89,0-5.32.13-10.63-.15-15.94-.09-1.81-.1-1.83-1.88-2.06-.42-.06-1.07.12-1-.68s.64-.45,1-.45c1.92,0,3.84,0,5.75,0,.4,0,.83-.11.84.53s-.35.52-.72.58c-2.09.35-2.08.36-2.17,2.38-.31,6.87-.12,13.75-.06,20.62Z" transform="translate(510.02 -2505.8)"/><path class="cls-6" d="M-316.21,2517.64a13.53,13.53,0,0,1,5.83,1.11,10.5,10.5,0,0,1,6.31,8.41c1,6.14-1.89,12.07-7.21,14.43a14,14,0,0,1-9.59.74c-5-1.38-7.45-5-8.15-9.88-.79-5.48,1-10.41,5.91-13.2A13.38,13.38,0,0,1-316.21,2517.64Zm-9.47,11.81c.17,3.39.94,6.86,3.73,9.61,3.42,3.35,11.24,3.13,13.45-2.93a15.42,15.42,0,0,0-.41-12.12c-2.51-5.43-10.49-6.65-14.45-2.25C-325.24,2523.85-325.6,2526.45-325.68,2529.45Z" transform="translate(510.02 -2505.8)"/><path class="cls-3" d="M-490.11,2532.74h3.35c.28,0,.59-.09.68.28s.08.54-.16.67c-1.89,1-.92,2.82-1.24,4.26a4.33,4.33,0,0,0,.06,1.07c.12,2.09.12,2.11-1.94,2.69-4.34,1.21-8.7,1.73-13.06.11a11.79,11.79,0,0,1-7.58-12c.36-8,6.56-11.79,12.52-12.18a23,23,0,0,1,9.31,1.18c.73.26,1,.57.85,1.38-.23,1.09-.34,2.21-.48,3.31-.06.4,0,.82-.61.86s-.65-.4-.59-.79c.36-2.32-1.07-3.18-2.94-3.74-3.92-1.17-7.73-1.14-11,1.58-3.09,2.57-3.66,6.17-3.26,9.94.5,4.82,3.43,8.39,7.59,9.46a12.83,12.83,0,0,0,7.08-.32,1.21,1.21,0,0,0,1-1.26c0-1.28,0-2.56,0-3.84a1.32,1.32,0,0,0-1.44-1.51c-.63,0-1.27-.11-1.91-.11-.44,0-.67-.12-.65-.61s.31-.5.65-.5h3.72Z" transform="translate(510.02 -2505.8)"/><path class="cls-4" d="M-449.69,2534.25c-1.32,0-2.64,0-4,0-.48,0-.82.06-1,.59-.57,1.48-1.23,2.94-1.78,4.43-.5,1.33-.21,1.7,1.24,1.77.28,0,.56,0,.84,0,.48,0,.57.35.55.76s-.27.46-.64.46c-2.16,0-4.31,0-6.47,0-.38,0-.72.08-.71-.49,0-.42.09-.77.57-.71,1.48.18,2-.83,2.51-1.92,3-6.64,5.89-13.33,8.69-20.06.21-.49.15-1.24,1-1.26s.9.79,1.12,1.31c2.78,6.56,5.52,13.15,8.3,19.71.47,1.13.87,2.38,2.54,2.24.48,0,.46.43.45.8s-.27.4-.57.38a77.08,77.08,0,0,0-7.9.06c-.37,0-.61-.1-.62-.53s.1-.71.57-.74.8,0,1.19,0c1.2-.08,1.41-.37,1-1.52-.57-1.53-1.22-3-1.78-4.56a.93.93,0,0,0-1.06-.69C-447,2534.28-448.33,2534.25-449.69,2534.25Zm.06-11.63c-1.14,2.75-2.14,5.18-3.15,7.61s-1,2.48,1.71,2.48c.64,0,1.28,0,1.92,0a22.93,22.93,0,0,0,3.59-.11Z" transform="translate(510.02 -2505.8)"/><path class="cls-7" d="M-269.68,2542.25h-7.67c-.26,0-.59.2-.7-.2a.6.6,0,0,1,.36-.79c1-.34,1-1.18,1.07-2,.23-6,.14-12.06.06-18.1,0-1.17-.41-1.82-1.67-1.76-.36,0-.71-.06-1.07-.07s-.45-.35-.46-.67.09-.49.48-.49c3,0,5.91,0,8.87,0,.36,0,.51.13.51.48s0,.57-.37.64a2.19,2.19,0,0,1-.36,0c-2.5.28-2.56.28-2.58,2.76,0,5.8,0,11.59,0,17.39,0,.9.26,1.26,1.23,1.21,2.32-.1,4.64-.05,6.95-.12,2.06-.07,2.24-.26,2.71-2.24.13-.54.26-1.09.34-1.64s.47-.45.82-.45c.56,0,.36.41.33.7-.12,1.55-.28,3.1-.35,4.65,0,.63-.19.77-.84.75-2.56-.06-5.12,0-7.68,0Z" transform="translate(510.02 -2505.8)"/><path class="cls-7" d="M-374.43,2556.61c-.22.72-1,1.61.63,1.7.44,0,.48.67.48,1.1s.05,1.06.41,1.14c.58.12.69-.59.85-1a5.64,5.64,0,0,1,.56-1.38c.34-.46.39-1.53,1.32-.51.35.38.65-.56,1.06-.12l0,.15v-.17c.68.62.38,1.37.2,2a3.86,3.86,0,0,1-3.23,3,3.93,3.93,0,0,1-4.31-1.86v-.47c1.23-.95.31-1.41-.44-1.91l-.25,0c.36-3.3,2.95-4.79,6.24-3.6.11.18,0,.32-.09.46-.52-.4-1.09.06-1.63-.09a.5.5,0,0,0-.7.09c-.27.3.49.19.22.51h0c-.45-.08-.81,0-1,.49l0,0C-374.3,2556.16-374.57,2556.22-374.43,2556.61Z" transform="translate(510.02 -2505.8)"/></svg>